<?xml version="1.0" encoding="UTF-8"?>
<svg xmlns="http://www.w3.org/2000/svg" xmlns:xlink="http://www.w3.org/1999/xlink" viewBox="0 0 822.18 200">
  <defs>
    <style>
      .cls-1 {
        fill: #c29652;
      }

      .cls-2 {
        fill: url(#linear-gradient-2);
      }

      .cls-3 {
        fill: url(#linear-gradient-4);
      }

      .cls-4 {
        fill: #bd8f45;
      }

      .cls-5 {
        fill: url(#linear-gradient-3);
      }

      .cls-6 {
        fill: url(#linear-gradient-5);
      }

      .cls-7 {
        fill: url(#linear-gradient-8);
      }

      .cls-8 {
        fill: url(#linear-gradient-7);
      }

      .cls-9 {
        fill: url(#linear-gradient-6);
      }

      .cls-10 {
        fill: url(#linear-gradient);
      }
    </style>
    <linearGradient id="linear-gradient" x1="581.53" y1="-354.08" x2="571.99" y2="119.42" gradientUnits="userSpaceOnUse">
      <stop offset="0" stop-color="#182543"/>
      <stop offset="1" stop-color="#1a2854"/>
    </linearGradient>
    <linearGradient id="linear-gradient-2" x1="787.76" y1="-349.93" x2="778.22" y2="123.58" xlink:href="#linear-gradient"/>
    <linearGradient id="linear-gradient-3" x1="681.91" y1="-352.06" x2="672.37" y2="121.44" xlink:href="#linear-gradient"/>
    <linearGradient id="linear-gradient-4" x1="485.18" y1="-356.02" x2="475.64" y2="117.48" xlink:href="#linear-gradient"/>
    <linearGradient id="linear-gradient-5" x1="270.68" y1="-360.35" x2="261.14" y2="113.16" xlink:href="#linear-gradient"/>
    <linearGradient id="linear-gradient-6" x1="370.36" y1="-358.34" x2="360.82" y2="115.16" xlink:href="#linear-gradient"/>
    <linearGradient id="linear-gradient-7" x1="38.17" y1="-9.46" x2="32.58" y2="268.08" xlink:href="#linear-gradient"/>
    <linearGradient id="linear-gradient-8" x1="95.1" y1="-8.32" x2="89.5" y2="269.23" xlink:href="#linear-gradient"/>
  </defs>
  <g id="Layer_1" data-name="Layer 1">
    <g>
      <g>
        <path class="cls-10" d="M576.5,38.35l-16.48-.16.2,72.23c.01,4.55,3.8,5.74,7.52,7.64h-28.29c5.23-2.06,7.23-5.01,7.23-10.25l-.03-63.98c0-4.86-2.35-7.79-7.12-9.38l16.31-.61,29.04.61c6.42.13,12.55,3.76,17.08,8.24,5.09,5.03,6.32,11.98,4.91,19.5-2.77,14.8-25.16,22.83-40.68,16.85,7.43-1.44,13.91-.46,19.75-4.92,9.37-7.16,10.67-21.14,2.86-30.14-2.98-3.43-7.49-5.58-12.29-5.63Z"/>
        <g>
          <path class="cls-2" d="M822.18,117.95l-28.12.22c1.43-1.75,2.8-2.49,2.86-4.07.06-1.46-.54-3.28-1.56-4.67l-20.22-27.52-21.7,27.97c-.96,1.23-1.23,2.89-1.16,4.21.08,1.57,1.37,2.36,2.88,4l-20.55-.28c5.89-2.17,9.52-5.49,13.23-10.1l24.21-30.05-24.68-33.37c-3.14-4.25-6.35-7.16-11.21-10.05l27.39-.26c-2.56,2.68-3.6,5.19-1.76,7.75l18.99,26.41,19.81-25.03c1.08-1.37,1.22-3.46,1.23-4.84.01-2.09-1.74-2.44-3.74-4.1l20.78.11c-5.67,3.18-9.46,6.55-13.29,11.23l-21.56,26.33,25.56,35.2c3.48,4.79,6.54,8.48,12.61,10.91Z"/>
          <path class="cls-5" d="M683.95,76.92l-23.87-.38.06,33.03c0,2.15,1.33,4.65,3.74,4.63l23.43-.22c8.73-.08,15.49-4.59,20.25-12.81.55,6.54-1.46,11.36-2.47,17.05l-65.9-.14c4.37-2.18,7.24-4.44,7.24-9.49l-.05-64.86c0-4.92-2.6-7.69-7.2-9.39l21.13-.6,41.26-.29c.25,5.45.73,9.9-.26,15.91-2.83-8.22-9.56-11.23-18.42-11.28l-22.81-.12-.27,34.34,25.19-.37c4.36-.06,6.07-3.15,8.01-7.03.58,7.26.83,12.72-.02,19.87-1.78-4.39-3.99-7.79-9.04-7.86Z"/>
        </g>
        <path class="cls-3" d="M490.13,113.97c9.04-.11,15.48-4.96,20.69-12.97.56,6.3-1.97,11.11-2.75,17.25l-65.65-.14c3.84-1.97,6.93-4.2,6.93-8.85l-.05-66.15c0-4.55-3.01-6.96-6.96-8.89l27.44-.07c-3.45,2.13-6.45,3.83-6.46,7.92l-.09,67.44c0,2.16,1.47,4.78,3.76,4.75l23.13-.29Z"/>
        <path class="cls-6" d="M240.28,133.8c6.72-2.61,13.61-4.96,17.59-11.65,3.61-6.07,5.04-12.98,5.05-20.26l.02-58.17c0-4.59-2.53-7.06-6.53-9.58l26.77.05c-3.46,2.04-6.37,3.91-6.4,8.03l-.5,59.88c-.93,19.32-15.8,34.48-36,31.7Z"/>
        <g>
          <path class="cls-9" d="M355.76,52.1l-27.93,57.82c-1.51,3.13-.28,6.01,2.4,8.13l-22.14-.09c5.05-2.49,8.05-5.54,10.56-10.4l41.17-79.18,41.32,78.16c2.94,5.56,6.23,8.76,12.29,11.44l-30.92.16c3.36-2.38,3.7-4.85,2.62-8.44l-29.38-57.61Z"/>
          <polygon class="cls-1" points="372.41 101.99 340.19 102.18 344.43 92.49 368.33 92.42 372.41 101.99"/>
        </g>
      </g>
      <rect class="cls-1" x="239.37" y="158.49" width="100.1" height="2.93"/>
      <rect class="cls-1" x="734.8" y="158.49" width="86.84" height="2.93"/>
      <path class="cls-1" d="M483.83,170.41c-4.41,3.35-4.51-3.62-9.28-8.08-1.11-1.04-5.09-1.6-5.77-.27-1.46,2.84.97,7.66-1.73,9.14-.43.23-1.96-.17-1.96-1.01l.04-20.72c4.56-.72,8.82-.85,13.27-.07,2.81.49,4.49,3.71,4.33,6.09-.18,2.68-2.03,4.86-5.15,5.85l6.25,9.07ZM476.67,158.46c1.68-.01,2.45-1.76,2.62-2.95.58-4.04-4.27-4.02-10.84-3.59v6.59s8.22-.05,8.22-.05Z"/>
      <path class="cls-1" d="M654.86,169.89c0,1.43-1.87,1.71-2.65,1.29-3.23-1.77-6.22-10.65-11.78-15.96l-.2,15.19c0,.69-1.25.93-1.59.8-.48-.18-1.4-.62-1.37-1.77l.42-20.08c.66-1.5,3.6.77,4.33,1.89l9.34,14.27.26-15.51c.02-.98,1.44-1.22,2.07-.91.47.23,1.26.82,1.26,1.9l-.09,18.89Z"/>
      <path class="cls-1" d="M392.16,170.21c0,1.99-3.35.98-4.3-.46l-10.02-15.2v14.95c0,.99-.61,1.53-1.21,1.71-.82.24-2.1-.43-2.07-1.74l.37-20.14c1.17-1.53,3.82,1.06,4.75,2.39l9.34,13.41.16-15.2c.02-1.49,2.92-1.47,2.93-.5l.05,20.78Z"/>
      <path class="cls-1" d="M514.28,170.11c0,1.8-2.83,1.3-3.59.17l-10.49-15.52-.32,15.75c-.01.59-1.95,1.1-2.86.49l.27-21.62c.01-1.05,2.7-.4,3.34.53l10.45,15.12.28-15.09c.03-1.37,2.94-1.37,2.94.07l-.02,20.08Z"/>
      <path class="cls-1" d="M624.22,158.92c.63,7.21-3.7,12.56-10.1,12.69-6.23.13-11-4.66-11.05-11.4-.04-5.99,3.8-10.87,9.3-11.47,6.02-.65,11.26,3.34,11.85,10.17ZM621.14,159.86c-.16-5.43-3.32-8.5-7.91-8.26-4.47.23-7.03,3.79-6.98,8.63s3,8.98,7.75,8.56c4.22-.37,7.28-3.86,7.14-8.93Z"/>
      <path class="cls-1" d="M448.93,161.23l-10.6.05.05,7.12,12.24.18c.89.01,1.19.8,1.17,1.36-.01.43-.25,1.27-1.17,1.27l-15.35-.03v-22.08s14.44-.05,14.44-.05c.8,0,1.67,1,1.65,1.47-.02.49-.64,1.39-1.59,1.39h-11.33s-.11,6.53-.11,6.53l10.53.07c.87,0,1.65.76,1.65,1.29,0,.59-.64,1.42-1.59,1.43Z"/>
      <path class="cls-1" d="M681.97,164.82l-9.11-.08-2.33,5.8c-.56,1.39-3.46.67-3.18-.07l7.62-19.73c.42-1.08.9-1.53,1.6-1.74.95-.28,2.34.05,2.85,1.31l8.06,20.14c.16.75-2.77,1.29-3.2.2l-2.31-5.82ZM680.68,161.7c-1.12-3.78-1.5-5.97-3.67-8.82l-3.24,8.96c2.37.16,4.16.42,6.91-.13Z"/>
      <path class="cls-1" d="M541.53,165.01c-2.81-.68-5.91-.47-8.75-.08-2.37.33-1.21,7.88-6.34,5.98l8.14-20.36c.38-.96,1.04-1.6,1.76-1.68,1.02-.12,2.17.45,2.67,1.64l8.33,19.99c.21.51-1.88,1.12-2.45.83-1.84-.95-1.94-3.61-3.34-6.31ZM540.38,161.73l-3.64-8.85-3.36,8.98,7-.13Z"/>
      <path class="cls-1" d="M713.18,168.74c.84.04.75,2.36.03,2.36l-13.43.05.1-21.77c0-.43,1.74-.78,2.05-.54.47.35,1.18.97,1.16,2.17l-.31,17.3,10.4.44Z"/>
      <path class="cls-1" d="M415.46,170.11c0,1.68-3.15,1.53-3.16.36l-.16-18.51-6.46-.12c-1.08-.02-1.02-2.75.01-2.75l16.31.03c.88,0,1.17,2.14.4,2.43-2.14.82-4.66.26-6.89.39l-.05,18.16Z"/>
      <path class="cls-1" d="M566.51,170.12c0,1.68-3,1.59-3.01.32l-.15-18.26-6.44-.34c-1.22-.07-1.21-2.79.05-2.79l14.47-.05c1.31,0,2,.5,2.01,1.51.01.85-.71,1.48-2.01,1.46l-5.03-.08.1,18.22Z"/>
      <rect class="cls-1" x="356.88" y="149.11" width="3.42" height="22.1"/>
      <path class="cls-1" d="M589.53,170.07c0,1.75-3.07,1.54-3.07.45l.04-20.57c0-1.3,2.98-1.34,2.98.06l.05,20.06Z"/>
    </g>
  </g>
  <g id="Layer_2" data-name="Layer 2">
    <g>
      <g>
        <path class="cls-8" d="M0,199.75c7-2.17,13.15-4.04,19.17-7.65,7.54-4.52,13.59-10.85,17.88-18.66,4.29-7.8,7.11-16.37,7.13-25.5l.16-68.62c1.13-13.33,11.95-19.17,24.79-20.2l-.19,89.25c-.03,16.09-8.12,31.38-21.17,40.72s-31.52,11.7-47.77,10.65Z"/>
        <path class="cls-4" d="M107.65,147.83c6.63-3.43,13.04-6.7,18.7-11.85,8.41-7.67,13.99-17.65,14.98-29.03,1.2-13.68-4.76-26.09-16.36-33.26-13.15-8.13-28.99-10.9-44.5-11.37l-9.23-3.33,26.41-.51c11.44-.22,22.43,1.16,33.47,4.07,8.45,2.23,15.91,5.69,22.77,10.93,13.41,10.25,18.56,28.01,11.4,43.48-6.47,13.99-22.83,22.61-37.34,27.1-6.63,1.65-12.84,3.26-20.31,3.77Z"/>
        <polygon class="cls-4" points="103.71 149.3 79.39 162.51 79.5 108.38 103.64 118.48 103.71 149.3"/>
        <path class="cls-7" d="M96.28,181.44c-5.06,4.86-10.28,8.7-16.71,12.34l-.16-20.02,24.09-12.92c.89,7.7-2.15,14.77-7.22,20.61Z"/>
      </g>
      <path class="cls-4" d="M90.58,32.81c-15.88,6.78-35.15,7.48-50.56-.07-1.52-2.76-2.15-5.74-2.39-8.76,2.85,2.14,5.35,3.65,8.53,4.73,14.94,5.07,30.85,5.01,45.79-.69.21,1.75-.45,3.16-1.37,4.78Z"/>
      <path class="cls-4" d="M79.81,23.56c-12.87,2.81-30.59,2.42-42.2-3.86-.5-3.28.34-6.24,1.67-9.11,1.81,3.26,4.58,4.8,7.87,5.9,10.33,3.48,21.13,4.07,31.92,2.5,1.08-.16,1.5,1.19,1.65,1.81s.21,2.52-.91,2.76Z"/>
      <path class="cls-4" d="M70.1,11.22c-2.86,1.44-6.19.98-9.1.73-7.01-.6-14.57-1.12-19.65-5.85,1.28-2.43,2.45-4.57,4.94-6.1.52,1.99,1.53,3.08,3.14,3.87,11.19,5.45,18.7,1.69,20.96,4.47.44.54.81,2.33-.29,2.88Z"/>
      <path class="cls-4" d="M83.75,42.05c-5.02,4.9-8.52,5.7-14.92,6.38-10.81,1.15-19.52-1.85-25.58-10.69,9.9,4.81,19.73,7.21,30.18,6.31l10.33-2.01Z"/>
    </g>
  </g>
</svg>
